<svg xmlns="http://www.w3.org/2000/svg" width="51" height="51" viewBox="0 0 51 51">
  <g id="Group_768" data-name="Group 768" transform="translate(-480 -933)">
    <path id="Path_5093" data-name="Path 5093" d="M25.5,0A25.5,25.5,0,1,1,0,25.5,25.5,25.5,0,0,1,25.5,0Z" transform="translate(480 933)" fill="#4ba8d1"/>
    <g id="Iconly_Light_Edit" data-name="Iconly/Light/Edit" transform="translate(488 940.904)">
      <g id="Edit" transform="translate(5.667 5.667)">
        <path id="Stroke_1" data-name="Stroke 1" d="M0,.5H8.5" transform="translate(12.599 20.364)" fill="none" stroke="#fff" stroke-linecap="round" stroke-linejoin="round" stroke-miterlimit="10" stroke-width="1.5"/>
        <path id="Stroke_3" data-name="Stroke 3" d="M11.473.941A2.6,2.6,0,0,1,15.3.737L17.15,2.19a2.594,2.594,0,0,1,.715,3.761L6.813,20.051a1.974,1.974,0,0,1-1.533.757l-4.263.055L.052,16.71a1.982,1.982,0,0,1,.369-1.669Z" transform="translate(0 0)" fill="none" stroke="#fff" stroke-linecap="round" stroke-linejoin="round" stroke-miterlimit="10" stroke-width="1.5"/>
        <path id="Stroke_5" data-name="Stroke 5" d="M0,0,6.392,5.011" transform="translate(9.403 3.581)" fill="none" stroke="#fff" stroke-linecap="round" stroke-linejoin="round" stroke-miterlimit="10" stroke-width="1.5"/>
      </g>
    </g>
  </g>
</svg>
