<svg id="Iconly_Light_Discount" data-name="Iconly/Light/Discount" xmlns="http://www.w3.org/2000/svg" width="19.998" height="19.999" viewBox="0 0 19.998 19.999">
  <g id="Discount" transform="translate(0 -0.001)">
    <path id="Stroke_1" data-name="Stroke 1" d="M9.25,19.249a2.993,2.993,0,0,1-2.124-.876l-.73-.729a1.521,1.521,0,0,0-1.063-.438H4.305a3.014,3.014,0,0,1-3.011-3.011V13.165A1.515,1.515,0,0,0,.855,12.1l-.719-.72a3.011,3.011,0,0,1-.01-4.257L.855,6.4a1.5,1.5,0,0,0,.439-1.064V4.305A3.015,3.015,0,0,1,4.305,1.293H5.334A1.5,1.5,0,0,0,6.4.854L7.115.136A3.012,3.012,0,0,1,11.358.112l.026.024.72.72a1.5,1.5,0,0,0,1.063.437h1.028a3.015,3.015,0,0,1,3.012,3.012V5.332A1.5,1.5,0,0,0,17.645,6.4l.718.718a3.015,3.015,0,0,1,.01,4.257l-.731.731a1.514,1.514,0,0,0-.437,1.062v1.029a3.015,3.015,0,0,1-3.012,3.011H13.166a1.519,1.519,0,0,0-1.064.44l-.719.718A2.987,2.987,0,0,1,9.25,19.249ZM4.305,2.793A1.513,1.513,0,0,0,2.794,4.305V5.332a2.994,2.994,0,0,1-.876,2.122l-.73.731A1.511,1.511,0,0,0,1.2,10.321l.721.722a3.025,3.025,0,0,1,.877,2.122v1.029a1.513,1.513,0,0,0,1.511,1.511H5.334a2.993,2.993,0,0,1,2.121.876l.73.73a1.511,1.511,0,0,0,2.136-.007l.722-.721a2.99,2.99,0,0,1,2.123-.877h1.028a1.513,1.513,0,0,0,1.512-1.511V13.165a3.025,3.025,0,0,1,.876-2.122l.73-.73A1.513,1.513,0,0,0,17.3,8.178l-.721-.721a3,3,0,0,1-.877-2.124V4.305a1.514,1.514,0,0,0-1.512-1.512H13.166a2.989,2.989,0,0,1-2.122-.875l-.707-.707-.022-.021A1.512,1.512,0,0,0,8.178,1.2l-.72.721a2.994,2.994,0,0,1-2.124.877Z" transform="translate(0.75 0.751)" fill="#fff"/>
    <path id="Stroke_3" data-name="Stroke 3" d="M0,5.89a.748.748,0,0,1-.53-.22.75.75,0,0,1,0-1.061L4.61-.53a.75.75,0,0,1,1.061,0A.75.75,0,0,1,5.67.53L.53,5.67A.748.748,0,0,1,0,5.89Z" transform="translate(7.43 7.43)" fill="#fff"/>
    <path id="Fill_5" data-name="Fill 5" d="M.75,1.49a.749.749,0,0,1-.53-.22.821.821,0,0,1-.16-.25A.668.668,0,0,1,0,.74.717.717,0,0,1,.06.45.776.776,0,0,1,.22.21a.774.774,0,0,1,1.06,0,.807.807,0,0,1,.17.24A.929.929,0,0,1,1.5.74a.863.863,0,0,1-.05.28.852.852,0,0,1-.17.25.749.749,0,0,1-.53.22" transform="translate(11.817 11.832)" fill="#fff"/>
    <path id="Fill_7" data-name="Fill 7" d="M.75,1.491A.672.672,0,0,1,.47,1.43a.818.818,0,0,1-.25-.159.963.963,0,0,1-.16-.25A.674.674,0,0,1,0,.741.714.714,0,0,1,.06.451.674.674,0,0,1,.22.211a.772.772,0,0,1,1.06,0,.748.748,0,0,1,.22.53.666.666,0,0,1-.05.28,1.006,1.006,0,0,1-.17.25.773.773,0,0,1-.24.159.718.718,0,0,1-.29.061" transform="translate(6.677 6.692)" fill="#fff"/>
  </g>
</svg>
