<svg xmlns="http://www.w3.org/2000/svg" width="18.165" height="19.91" viewBox="0 0 18.165 19.91">
  <g id="Document" transform="translate(-0.001 0)">
    <path id="Stroke_1" data-name="Stroke 1" d="M7.22,1.25H0A.75.75,0,1,1,0-.25H7.22a.75.75,0,0,1,0,1.5Z" transform="translate(5.496 13.723)" fill="#fff"/>
    <path id="Stroke_2" data-name="Stroke 2" d="M7.22,1.25H0A.75.75,0,1,1,0-.25H7.22a.75.75,0,0,1,0,1.5Z" transform="translate(5.496 9.537)" fill="#fff"/>
    <path id="Stroke_3" data-name="Stroke 3" d="M2.755,1.25H0A.75.75,0,0,1,0-.25H2.755a.75.75,0,0,1,0,1.5Z" transform="translate(5.496 5.36)" fill="#fff"/>
    <path id="Stroke_4" data-name="Stroke 4" d="M12.158-.75h0A5.185,5.185,0,0,1,15.994.738a5.419,5.419,0,0,1,1.421,3.869v9.2a5.419,5.419,0,0,1-1.41,3.854,5.173,5.173,0,0,1-3.806,1.5l-7.693,0A5.184,5.184,0,0,1,.67,17.672,5.42,5.42,0,0,1-.75,13.8v-9.2A5.418,5.418,0,0,1,.659.753a5.172,5.172,0,0,1,3.805-1.5ZM4.506,17.66l7.689,0a3.5,3.5,0,0,0,3.72-3.854v-9.2A3.5,3.5,0,0,0,12.158.75l-7.689,0A3.5,3.5,0,0,0,.75,4.607v9.2A3.5,3.5,0,0,0,4.506,17.66Z" transform="translate(0.751 0.75)" fill="#fff"/>
  </g>
</svg>
