<svg xmlns="http://www.w3.org/2000/svg" width="20.264" height="20.722" viewBox="0 0 20.264 20.722">
  <g id="Search" transform="translate(-0.028 -0.028)">
    <path id="Ellipse_739" d="M8.989-.75A9.739,9.739,0,1,1-.75,8.989,9.75,9.75,0,0,1,8.989-.75Zm0,17.977A8.239,8.239,0,1,0,.75,8.989,8.248,8.248,0,0,0,8.989,17.227Z" transform="translate(0.778 0.778)" fill="#fff"/>
    <path id="Line_181" d="M3.524,4.265a.748.748,0,0,1-.53-.219L-.53.531a.75.75,0,0,1,0-1.061.75.75,0,0,1,1.061,0L4.054,2.984a.75.75,0,0,1-.53,1.281Z" transform="translate(16.018 16.485)" fill="#fff"/>
  </g>
</svg>
