<svg xmlns="http://www.w3.org/2000/svg" width="20" height="20" viewBox="0 0 20 20">
  <g id="Iconly_Light_Info_Square" data-name="Iconly/Light/Info Square" transform="translate(20 20) rotate(180)">
    <g id="Info_Square" data-name="Info Square" transform="translate(-0.001 0)">
      <path id="Stroke_1" data-name="Stroke 1" d="M.5,5.169a.75.75,0,0,1-.75-.75V0a.75.75,0,1,1,1.5,0V4.419A.75.75,0,0,1,.5,5.169Z" transform="translate(9.49 9.377)" fill="#fff"/>
      <path id="Stroke_2" data-name="Stroke 2" d="M.5,1.25H.5a.75.75,0,0,1,0-1.5H.5a.75.75,0,0,1,0,1.5Z" transform="translate(9.495 5.704)" fill="#fff"/>
      <path id="Stroke_3" data-name="Stroke 3" d="M4.915-.75h8.669A5.489,5.489,0,0,1,17.727.937,6.064,6.064,0,0,1,19.25,5.166v8.168a6.063,6.063,0,0,1-1.523,4.229,5.49,5.49,0,0,1-4.144,1.687H4.915A5.487,5.487,0,0,1,.772,17.563,6.065,6.065,0,0,1-.75,13.334V5.166A6.061,6.061,0,0,1,.776.937,5.487,5.487,0,0,1,4.915-.75Zm8.668,18.5c2.531,0,4.167-1.733,4.167-4.416V5.166C17.75,2.483,16.115.75,13.584.75H4.915C2.385.75.75,2.483.75,5.166v8.168c0,2.683,1.635,4.416,4.165,4.416Z" transform="translate(0.751 0.75)" fill="#fff"/>
    </g>
  </g>
</svg>
