<svg xmlns="http://www.w3.org/2000/svg" width="62" height="62" viewBox="0 0 62 62">
  <g id="Group_766" data-name="Group 766" transform="translate(-1106 -656)">
    <circle id="Ellipse_184" data-name="Ellipse 184" cx="31" cy="31" r="31" transform="translate(1106 656)" fill="#fd96a6"/>
    <g id="Business_Card" data-name="Business Card" transform="translate(1119 590.704)">
      <path id="Path_5116" data-name="Path 5116" d="M34.179,84H2.42A2.423,2.423,0,0,0,0,86.42v19.75a2.423,2.423,0,0,0,2.42,2.42H34.179a2.423,2.423,0,0,0,2.42-2.42V86.42A2.423,2.423,0,0,0,34.179,84Zm1.276,22.17a1.278,1.278,0,0,1-1.276,1.276H2.42a1.278,1.278,0,0,1-1.276-1.276V86.42A1.278,1.278,0,0,1,2.42,85.144H34.179a1.278,1.278,0,0,1,1.276,1.276Zm-18.824-16.9H3.729a.572.572,0,0,0-.572.572v12.9a.572.572,0,0,0,.572.572h12.9a.572.572,0,0,0,.572-.572v-12.9A.572.572,0,0,0,16.632,89.272Zm-3.463,12.9H7.192v-.8a2.988,2.988,0,0,1,5.976,0Zm2.891,0H14.312v-.8a4.132,4.132,0,0,0-8.264,0v.8H4.3V90.416H16.06v11.759ZM10.18,96.737a2.5,2.5,0,1,0-2.5-2.5A2.5,2.5,0,0,0,10.18,96.737Zm0-3.852a1.354,1.354,0,1,1-1.354,1.354A1.356,1.356,0,0,1,10.18,92.885ZM22.139,94.3a.572.572,0,0,1-.572.572H19.477a.572.572,0,0,1,0-1.144h2.091A.572.572,0,0,1,22.139,94.3Zm11.3,0a.572.572,0,0,1-.572.572h-9.23a.572.572,0,0,1,0-1.144h9.23A.572.572,0,0,1,33.443,94.3Zm-11.3,7.215a.572.572,0,0,1-.572.572H19.477a.572.572,0,1,1,0-1.144h2.091A.572.572,0,0,1,22.139,101.519Zm11.3,0a.572.572,0,0,1-.572.572h-9.23a.572.572,0,0,1,0-1.144h9.23A.572.572,0,0,1,33.443,101.519Zm0-3.608a.572.572,0,0,1-.572.572h-9.23a.572.572,0,1,1,0-1.144h9.23A.572.572,0,0,1,33.443,97.911Zm-11.3,0a.572.572,0,0,1-.572.572H19.477a.572.572,0,1,1,0-1.144h2.091A.572.572,0,0,1,22.139,97.911Zm11.3-7.215a.572.572,0,0,1-.572.572h-9.23a.572.572,0,0,1,0-1.144h9.23A.572.572,0,0,1,33.443,90.7Zm-11.3,0a.572.572,0,0,1-.572.572H19.477a.572.572,0,0,1,0-1.144h2.091A.572.572,0,0,1,22.139,90.7Z" fill="#fff"/>
    </g>
  </g>
</svg>
