<svg xmlns="http://www.w3.org/2000/svg" width="32.102" height="31.467" viewBox="0 0 32.102 31.467">
  <path id="Path_5050" data-name="Path 5050" d="M50.891-6.783h-.02L49.789-8.664h2.983v-1.881H41.893l-2.547-4.246-1.613.968,3.1,5.159h1.685l-1.3,1.881H32.833L36.2-19.143l10.157,2.722.243-.908a11.28,11.28,0,0,0-7.98-13.822A11.29,11.29,0,0,0,24.8-23.172l-.243.908,9.829,2.634-3.5,12.847h-.809A5.649,5.649,0,0,0,24.432-1.14V-.074h32.1V-1.14a5.649,5.649,0,0,0-5.643-5.643ZM32.327-22.128c1.412-4.5,3.871-7.25,5.474-7.25,1.27,0,1.866,1.825,2.074,3.076a16.487,16.487,0,0,1-.319,6.111Zm12.655,3.391L41.374-19.7a17.268,17.268,0,0,0,.129-7.953A9.412,9.412,0,0,1,44.982-18.738ZM34.369-29.565a17.368,17.368,0,0,0-3.86,6.949L26.9-23.582A9.425,9.425,0,0,1,34.369-29.565ZM44.8-8.664H47.62L48.7-6.783H43.5ZM26.4-1.955A3.769,3.769,0,0,1,30.075-4.9H50.891a3.769,3.769,0,0,1,3.673,2.947Z" transform="translate(-24.432 31.541)" fill="#6477aa"/>
</svg>
