<svg id="Iconly_Light_Message" data-name="Iconly/Light/Message" xmlns="http://www.w3.org/2000/svg" width="23" height="23" viewBox="0 0 23 23">
  <g id="Message" transform="translate(1.95 3.413)">
    <path id="Path_445" d="M11.031,0,6.872,3.348a2.168,2.168,0,0,1-2.677,0L0,0" transform="translate(3.855 5.422)" fill="none" stroke="#6477aa" stroke-linecap="round" stroke-linejoin="round" stroke-miterlimit="10" stroke-width="2"/>
    <path id="Rectangle_511" d="M4.766,0h9.192a4.833,4.833,0,0,1,3.491,1.55,4.892,4.892,0,0,1,1.293,3.611v6.365a4.892,4.892,0,0,1-1.293,3.611,4.833,4.833,0,0,1-3.491,1.55H4.766C1.919,16.689,0,14.372,0,11.527V5.162C0,2.316,1.919,0,4.766,0Z" fill="none" stroke="#6477aa" stroke-linecap="round" stroke-linejoin="round" stroke-miterlimit="10" stroke-width="2"/>
  </g>
</svg>
