<svg id="Iconly_Light_Notification" data-name="Iconly/Light/Notification" xmlns="http://www.w3.org/2000/svg" width="24" height="23" viewBox="0 0 24 23">
  <g id="Notification" transform="translate(3.413 1.95)">
    <path id="Path_425" d="M0,11.493v-.214A3.51,3.51,0,0,1,.587,9.506,4.749,4.749,0,0,0,1.751,7.25c0-.65,0-1.309.057-1.959C2.1,2.163,5.194,0,8.25,0h.076c3.056,0,6.149,2.163,6.452,5.291.057.65,0,1.309.047,1.959a4.831,4.831,0,0,0,1.164,2.265,3.419,3.419,0,0,1,.587,1.764v.2a3.477,3.477,0,0,1-.823,2.33A4.393,4.393,0,0,1,12.97,15.15a43.952,43.952,0,0,1-9.375,0A4.441,4.441,0,0,1,.814,13.814,3.514,3.514,0,0,1,0,11.493Z" transform="translate(0)" fill="none" stroke="#6477aa" stroke-linecap="round" stroke-linejoin="round" stroke-miterlimit="10" stroke-width="2"/>
    <path id="Path_421" d="M0,0A2.984,2.984,0,0,0,1.986,1.1,3.011,3.011,0,0,0,4.181.492,2.814,2.814,0,0,0,4.692,0" transform="translate(5.904 18.381)" fill="none" stroke="#6477aa" stroke-linecap="round" stroke-linejoin="round" stroke-miterlimit="10" stroke-width="2"/>
  </g>
</svg>
