<svg xmlns="http://www.w3.org/2000/svg" width="38.153" height="29.55" viewBox="0 0 38.153 29.55">
  <g id="Group_197" data-name="Group 197" transform="translate(0 -57.725)">
    <g id="Group_196" data-name="Group 196" transform="translate(0 57.725)">
      <path id="Path_4876" data-name="Path 4876" d="M38.089,65.445a3.2,3.2,0,0,0-3.109-2.534H27.195V60.436a2.714,2.714,0,0,0-2.711-2.711h-6.4a2.714,2.714,0,0,0-2.711,2.711V62.91H7.577a3.2,3.2,0,0,0-3.166,3.173v8.389H2.868A2.872,2.872,0,0,0,0,77.341v.721a2.872,2.872,0,0,0,2.868,2.868H4.411V84.1a3.177,3.177,0,0,0,3.173,3.174H17.82a.746.746,0,0,0,0-1.491H7.584A1.684,1.684,0,0,1,5.9,84.1V75.964h7.374l-.753,3.058a.746.746,0,0,0,.724.924h2.371a.746.746,0,0,0,.625-.34l1.27-1.956L20.1,77.8l-1.477,4.167a.746.746,0,0,0,.7.995h2.638a.746.746,0,0,0,.615-.325l3.183-4.654h2.954a6.887,6.887,0,0,0,3.828-1.611,1.362,1.362,0,0,0,0-2.253,6.886,6.886,0,0,0-3.828-1.611H25.762L22.58,67.856a.745.745,0,0,0-.615-.325H19.326a.746.746,0,0,0-.7.994L20.1,72.693l-2.57.15L16.341,70.9a.746.746,0,0,0-.636-.356H13.247a.746.746,0,0,0-.723.927l.752,3H5.9v-8.39A1.7,1.7,0,0,1,7.589,64.4H34.974a1.708,1.708,0,0,1,1.688,1.682V84.1a1.684,1.684,0,0,1-1.682,1.683H24.38a.746.746,0,1,0,0,1.491h10.6A3.177,3.177,0,0,0,38.153,84.1V66.083a3.192,3.192,0,0,0-.065-.639Zm-33.677,14H2.868a1.379,1.379,0,0,1-1.377-1.377v-.721a1.379,1.379,0,0,1,1.377-1.377H4.411Zm10.561-4.3a.759.759,0,0,0-.018-.108l-.751-3h1.085L16.492,74a.748.748,0,0,0,.679.355l4.007-.234a.746.746,0,0,0,.659-.993l-1.456-4.108h1.19l3.183,4.654a.745.745,0,0,0,.615.325h3.347a5.437,5.437,0,0,1,2.84,1.246,5.437,5.437,0,0,1-2.839,1.246H25.369a.746.746,0,0,0-.615.325l-3.183,4.654h-1.19l1.456-4.108a.746.746,0,0,0-.659-.993l-4.01-.234a.749.749,0,0,0-.669.339l-1.285,1.98H14.2l.74-3a.755.755,0,0,0,.033-.309ZM25.7,62.91H16.861V60.436a1.222,1.222,0,0,1,1.22-1.22h6.4a1.222,1.222,0,0,1,1.22,1.22V62.91Z" transform="translate(0 -57.725)" fill="#fff"/>
      <path id="Path_4877" data-name="Path 4877" d="M274.216,434.73a.745.745,0,1,0-.26.894A.753.753,0,0,0,274.216,434.73Z" transform="translate(-252.454 -406.211)" fill="#fff"/>
    </g>
  </g>
</svg>
