<svg xmlns="http://www.w3.org/2000/svg" width="36.599" height="24.59" viewBox="0 0 36.599 24.59">
  <g id="Business_Card" data-name="Business Card" transform="translate(0 -84)">
    <path id="Path_5116" data-name="Path 5116" d="M34.179,84H2.42A2.423,2.423,0,0,0,0,86.42v19.75a2.423,2.423,0,0,0,2.42,2.42H34.179a2.423,2.423,0,0,0,2.42-2.42V86.42A2.423,2.423,0,0,0,34.179,84Zm1.276,22.17a1.278,1.278,0,0,1-1.276,1.276H2.42a1.278,1.278,0,0,1-1.276-1.276V86.42A1.278,1.278,0,0,1,2.42,85.144H34.179a1.278,1.278,0,0,1,1.276,1.276ZM16.631,89.27H3.729a.572.572,0,0,0-.572.572v12.9a.572.572,0,0,0,.572.572h12.9a.572.572,0,0,0,.572-.572v-12.9a.572.572,0,0,0-.569-.57Zm-3.463,12.9H7.192v-.8a2.988,2.988,0,0,1,5.976,0Zm2.891,0H14.312v-.8a4.132,4.132,0,1,0-8.264,0v.8H4.3V90.416H16.06v11.759ZM10.18,96.737a2.5,2.5,0,1,0-2.5-2.5A2.5,2.5,0,0,0,10.18,96.737Zm0-3.852a1.354,1.354,0,1,1-1.354,1.354,1.354,1.354,0,0,1,1.354-1.354ZM22.139,94.3a.572.572,0,0,1-.572.572h-2.09a.572.572,0,1,1,0-1.144h2.091A.572.572,0,0,1,22.139,94.3Zm11.3,0a.572.572,0,0,1-.572.572h-9.23a.572.572,0,1,1,0-1.144h9.23a.572.572,0,0,1,.576.572Zm-11.3,7.215a.572.572,0,0,1-.572.572h-2.09a.572.572,0,1,1,0-1.144h2.091a.572.572,0,0,1,.571.576Zm11.3,0a.572.572,0,0,1-.572.572h-9.23a.572.572,0,1,1,0-1.144h9.23a.572.572,0,0,1,.576.576Zm0-3.608a.572.572,0,0,1-.572.572h-9.23a.572.572,0,1,1,0-1.144h9.23a.572.572,0,0,1,.576.576Zm-11.3,0a.572.572,0,0,1-.572.572h-2.09a.572.572,0,1,1,0-1.144h2.091a.572.572,0,0,1,.571.576Zm11.3-7.215a.572.572,0,0,1-.572.572h-9.23a.572.572,0,1,1,0-1.144h9.23a.572.572,0,0,1,.576.58Zm-11.3,0a.572.572,0,0,1-.572.572h-2.09a.572.572,0,1,1,0-1.144h2.091a.572.572,0,0,1,.571.58Z" fill="#fff"/>
  </g>
</svg>
