<svg xmlns="http://www.w3.org/2000/svg" width="45.166" height="25.55" viewBox="0 0 45.166 25.55">
  <g id="Group_199" data-name="Group 199" transform="translate(-54 -41.388)">
    <g id="Group_198" data-name="Group 198" transform="translate(54 41.388)">
      <path id="Path_4878" data-name="Path 4878" d="M98.9,43.988l-2.418-2.35a.882.882,0,0,0-.615-.25H84.778a.882.882,0,0,0-.612.247l-1.824,1.758-1.806-1.755a.882.882,0,0,0-.615-.25H72.393a.882.882,0,1,0,0,1.764h7.17l1.894,1.841v18.25l-2,1.931H57.738l-1.974-1.85V45.083l2-1.931h6.867a.882.882,0,1,0,0-1.764H57.409a.882.882,0,0,0-.613.247L54.27,44.074a.882.882,0,0,0-.27.635v19a.882.882,0,0,0,.279.644l2.508,2.35a.882.882,0,0,0,.6.239H79.813a.882.882,0,0,0,.613-.247l1.9-1.836,1.826,1.826a.882.882,0,0,0,.624.258h10.98a.882.882,0,0,0,.613-.247L98.9,64.252a.882.882,0,0,0,.27-.635v-19a.883.883,0,0,0-.267-.633ZM97.4,63.243l-2,1.931H85.143l-1.922-1.922V45l1.912-1.843H95.508L97.4,44.993Z" transform="translate(-54 -41.388)" fill="#fff"/>
      <path id="Path_4879" data-name="Path 4879" d="M412.27,151.5H409.8a.882.882,0,0,0-.882.882v2.261a.882.882,0,0,0,1.764,0v-1.379h1.586a.882.882,0,1,0,0-1.764Z" transform="translate(-377.611 -141.789)" fill="#fff"/>
      <path id="Path_4880" data-name="Path 4880" d="M412.27,217.753h-1.586V216.4a.882.882,0,1,0-1.764,0v2.24a.882.882,0,0,0,.882.882h2.468a.882.882,0,1,0,0-1.764Z" transform="translate(-377.611 -200.152)" fill="#fff"/>
      <path id="Path_4881" data-name="Path 4881" d="M479.153,151.5h-2.468a.882.882,0,0,0,0,1.764h1.586v1.379a.882.882,0,0,0,1.764,0v-2.261a.882.882,0,0,0-.882-.882Z" transform="translate(-438.593 -141.789)" fill="#fff"/>
      <path id="Path_4882" data-name="Path 4882" d="M479.153,215.513a.882.882,0,0,0-.882.882v1.358h-1.586a.882.882,0,0,0,0,1.764h2.468a.882.882,0,0,0,.882-.882V216.4a.882.882,0,0,0-.882-.882Z" transform="translate(-438.593 -200.152)" fill="#fff"/>
      <path id="Path_4883" data-name="Path 4883" d="M418.171,100.746H409.8a.882.882,0,1,0,0,1.764h8.368a.882.882,0,1,0,0-1.764Z" transform="translate(-377.611 -95.51)" fill="#fff"/>
      <path id="Path_4884" data-name="Path 4884" d="M110.248,96.794a.882.882,0,0,0-.728-.384h-2.689A.891.891,0,0,0,106,97.587l1.451,4.094-2.384.139L103.893,99.9a.882.882,0,0,0-.752-.422h-2.505a.891.891,0,0,0-.856,1.1l.949,3.785-.949,3.853a.891.891,0,0,0,.857,1.093h2.417a.882.882,0,0,0,.74-.4l1.255-1.935,2.4.14L106,111.207a.891.891,0,0,0,.832,1.177h2.689a.882.882,0,0,0,.728-.384l3.208-4.69H116.4a7.124,7.124,0,0,0,3.974-1.665,1.511,1.511,0,0,0,0-2.5,7.121,7.121,0,0,0-3.974-1.665h-2.946Zm8.835,7.6a5.177,5.177,0,0,1-2.681,1.148h-3.412a.882.882,0,0,0-.728.384l-3.208,4.69h-.975l1.426-4.025a.891.891,0,0,0-.78-1.175l-4.087-.239a.881.881,0,0,0-.791.4l-1.274,1.963h-.812l.72-2.923a.883.883,0,0,0,.012-.472l-.728-2.9h.88l1.192,1.947a.881.881,0,0,0,.8.42l4.084-.238a.891.891,0,0,0,.78-1.175l-1.426-4.025h.975l3.208,4.69a.882.882,0,0,0,.728.384H116.4a5.176,5.176,0,0,1,2.681,1.148Z" transform="translate(-95.717 -91.556)" fill="#fff"/>
      <path id="Path_4885" data-name="Path 4885" d="M266.946,252.9h-5.025a.882.882,0,0,0,0,1.764h5.025a.882.882,0,1,0,0-1.764Z" transform="translate(-242.775 -234.244)" fill="#fff"/>
      <path id="Path_4886" data-name="Path 4886" d="M271.158,102.51a.882.882,0,0,0,0-1.764h-4.617a.882.882,0,0,0,0,1.764Z" transform="translate(-246.987 -95.51)" fill="#fff"/>
      <path id="Path_4887" data-name="Path 4887" d="M208.708,42.628a.882.882,0,1,0,.477-1.152A.89.89,0,0,0,208.708,42.628Z" transform="translate(-195.001 -41.408)" fill="#fff"/>
    </g>
  </g>
</svg>
