<svg xmlns="http://www.w3.org/2000/svg" width="36.947" height="48.457" viewBox="0 0 36.947 48.457">
  <g id="Group_233" data-name="Group 233" transform="translate(-20.98 205.857)">
    <path id="Path_4919" data-name="Path 4919" d="M57.8,283.024a2.74,2.74,0,0,0-2.725-1.923l-.264.011a3.068,3.068,0,0,0-2.049.9l-4.082,4.039a2.864,2.864,0,0,0-2.4-1.3H40.523a11.811,11.811,0,0,1-3.149-.419,7.743,7.743,0,0,0-7.212,1.51,10.427,10.427,0,0,0-1.917,2.067,2.589,2.589,0,0,0-3.34.333l-3.722,3.864a.724.724,0,0,0,.013,1.017l2.993,2.952a.724.724,0,0,0,1.016-1.031l-2.484-2.45,3.226-3.349a1.143,1.143,0,0,1,1.619-.027l5.755,5.585a1.143,1.143,0,0,1,.023,1.618l-3.17,3.252-.816-.777a.724.724,0,1,0-1,1.048l1.333,1.27a.724.724,0,0,0,1.018-.019l3.669-3.765a2.594,2.594,0,0,0,.557-2.755l1.292-.15a15.77,15.77,0,0,1,1.813-.105H46.8c.134,0,.27-.006.4-.017l.84-.07a4.858,4.858,0,0,0,3.3-1.7l5.9-6.946A2.815,2.815,0,0,0,57.8,283.024Zm-1.649,1.733-5.9,6.946a3.414,3.414,0,0,1-2.317,1.191l-.84.07c-.094.008-.189.012-.283.012H38.043a17.229,17.229,0,0,0-1.98.115l-2.093.243-4.63-4.464a8.957,8.957,0,0,1,1.735-1.9,6.269,6.269,0,0,1,5.913-1.238,13.253,13.253,0,0,0,3.535.471h5.758a1.425,1.425,0,0,1,1.02.434,1.408,1.408,0,0,1,.368.708.714.714,0,0,0,.024.194,1.413,1.413,0,0,1-.309.967l-.022.028a1.409,1.409,0,0,1-1.1.53H41.246a.724.724,0,1,0,0,1.447h5.013a2.849,2.849,0,0,0,2.233-1.072l.022-.028a2.855,2.855,0,0,0,.628-1.782l4.638-4.59a1.628,1.628,0,0,1,1.088-.477l.264-.011a1.288,1.288,0,0,1,1.283.906A1.375,1.375,0,0,1,56.149,284.757Z" transform="translate(0 -458.816)" fill="#fff"/>
    <path id="Path_4920" data-name="Path 4920" d="M88.61,442.467a1.96,1.96,0,1,0,1.96,1.96A1.962,1.962,0,0,0,88.61,442.467Zm0,2.472a.512.512,0,1,1,.512-.513A.513.513,0,0,1,88.61,444.939Z" transform="translate(-61.875 -610.86)" fill="#fff"/>
    <path id="Path_4921" data-name="Path 4921" d="M308.766,420.375l-.037.009a.724.724,0,1,0,.331,1.409l.037-.009a.724.724,0,0,0-.331-1.409Z" transform="translate(-270.595 -590.026)" fill="#fff"/>
    <path id="Path_4922" data-name="Path 4922" d="M109.237,552.916l-.037.009a.724.724,0,0,0,.331,1.409l.037-.009a.724.724,0,0,0-.331-1.409Z" transform="translate(-82.596 -714.908)" fill="#fff"/>
    <g id="Group_224" data-name="Group 224" transform="translate(38.683 -178.203)">
      <g id="Group_223" data-name="Group 223" transform="translate(0 0)">
        <path id="Path_4923" data-name="Path 4923" d="M332.565,272.741a.578.578,0,0,0-.751.321.675.675,0,0,1-.626.414h-2.111a.675.675,0,0,1-.626-.414.578.578,0,1,0-1.073.43,1.817,1.817,0,0,0,1.7,1.14h2.111a1.817,1.817,0,0,0,1.7-1.14A.578.578,0,0,0,332.565,272.741Z" transform="translate(-327.336 -272.699)" fill="#fff"/>
      </g>
    </g>
    <g id="Group_226" data-name="Group 226" transform="translate(32.207 -205.857)">
      <g id="Group_225" data-name="Group 225" transform="translate(0 0)">
        <path id="Path_4924" data-name="Path 4924" d="M233.766-181.138a2.851,2.851,0,0,0-1.368-1.924,2.882,2.882,0,0,0,.362-.352,2.875,2.875,0,0,0,.665-2.306,7.274,7.274,0,0,0-1.659-3.642,7.3,7.3,0,0,0-2.382-1.838,6.608,6.608,0,0,0,1.795-4.532,6.644,6.644,0,0,0-4.823-6.381,2.5,2.5,0,0,0,.585-1.614,2.133,2.133,0,0,0-2.131-2.131h0a1.935,1.935,0,0,0-1.251.434,1.577,1.577,0,0,0-.569,1.224.578.578,0,0,0,.578.578.578.578,0,0,0,.578-.578.428.428,0,0,1,.158-.341.783.783,0,0,1,.506-.162h0a.976.976,0,0,1,.975.975,1.354,1.354,0,0,1-.4.964,1.354,1.354,0,0,1-.964.4h0l-.042,0a6.64,6.64,0,0,0-6.465,6.63,6.607,6.607,0,0,0,1.795,4.532,7.3,7.3,0,0,0-2.382,1.838,7.275,7.275,0,0,0-1.659,3.642,2.876,2.876,0,0,0,.665,2.306,2.878,2.878,0,0,0,.362.352,2.851,2.851,0,0,0-1.368,1.924,2.851,2.851,0,0,0,.554,2.3l1.238,1.581a2.576,2.576,0,0,0,2.03.982,2.549,2.549,0,0,0,1.277-.341,2.58,2.58,0,0,0,1.1-3.185l-.751-1.862a2.846,2.846,0,0,0-.176-.358h4.238a.578.578,0,0,0,.578-.578.578.578,0,0,0-.578-.578H219.5v-1.218a.285.285,0,0,1,.284-.284h9.527a.285.285,0,0,1,.284.284v1.3a2.851,2.851,0,0,0-1.274,1.434l-.751,1.862a2.58,2.58,0,0,0,1.1,3.185,2.549,2.549,0,0,0,1.277.341,2.577,2.577,0,0,0,2.03-.982l1.237-1.581A2.851,2.851,0,0,0,233.766-181.138Zm-14.7-14.593a5.483,5.483,0,0,1,5.476-5.476,5.483,5.483,0,0,1,5.476,5.476,5.483,5.483,0,0,1-5.476,5.476A5.483,5.483,0,0,1,219.07-195.731Zm.631,14.5.751,1.862a1.419,1.419,0,0,1-.6,1.752,1.419,1.419,0,0,1-1.819-.353l-1.237-1.581a1.7,1.7,0,0,1-.329-1.369,1.7,1.7,0,0,1,.817-1.146,1.7,1.7,0,0,1,1.4-.135A1.7,1.7,0,0,1,219.7-181.229Zm9.613-5.76a.578.578,0,0,0-.578.578v.578h-8.375v-.578a.578.578,0,0,0-.578-.578.578.578,0,0,0-.578.578v.7a1.442,1.442,0,0,0-.862,1.319v.816a1.72,1.72,0,0,1-1.134-.59,1.721,1.721,0,0,1-.4-1.38,6.1,6.1,0,0,1,3.855-4.808,6.6,6.6,0,0,0,3.88,1.257,6.6,6.6,0,0,0,3.88-1.257,6.1,6.1,0,0,1,3.855,4.808,1.721,1.721,0,0,1-.4,1.38,1.72,1.72,0,0,1-1.134.59v-.816a1.442,1.442,0,0,0-.858-1.317v-.7A.578.578,0,0,0,229.314-186.99Zm2.988,7.44-1.237,1.581a1.419,1.419,0,0,1-1.819.353,1.419,1.419,0,0,1-.6-1.752l.751-1.862a1.7,1.7,0,0,1,1.021-.97,1.7,1.7,0,0,1,.553-.093,1.7,1.7,0,0,1,.848.227,1.7,1.7,0,0,1,.817,1.146A1.7,1.7,0,0,1,232.3-179.55Z" transform="translate(-215.275 205.857)" fill="#fff"/>
      </g>
    </g>
    <g id="Group_228" data-name="Group 228" transform="translate(43.485 -183.176)">
      <g id="Group_227" data-name="Group 227">
        <path id="Path_4925" data-name="Path 4925" d="M411.426,186.812a.577.577,0,1,0,.169.409A.582.582,0,0,0,411.426,186.812Z" transform="translate(-410.44 -186.643)" fill="#fff"/>
      </g>
    </g>
    <g id="Group_230" data-name="Group 230" transform="translate(37.948 -196.533)">
      <g id="Group_229" data-name="Group 229" transform="translate(0 0)">
        <path id="Path_4926" data-name="Path 4926" d="M316.689-44.107a1.346,1.346,0,0,0-1.9,0,.578.578,0,0,0,0,.817.578.578,0,0,0,.817,0,.189.189,0,0,1,.267,0,.576.576,0,0,0,.409.169.576.576,0,0,0,.409-.169A.578.578,0,0,0,316.689-44.107Z" transform="translate(-314.618 44.5)" fill="#fff"/>
      </g>
    </g>
    <g id="Group_232" data-name="Group 232" transform="translate(42.77 -196.533)">
      <g id="Group_231" data-name="Group 231" transform="translate(0 0)">
        <path id="Path_4927" data-name="Path 4927" d="M400.131-44.107a1.346,1.346,0,0,0-1.9,0,.578.578,0,0,0,0,.817.576.576,0,0,0,.409.169.576.576,0,0,0,.409-.169.189.189,0,0,1,.267,0,.578.578,0,0,0,.817,0A.578.578,0,0,0,400.131-44.107Z" transform="translate(-398.06 44.501)" fill="#fff"/>
      </g>
    </g>
  </g>
</svg>
