<svg xmlns="http://www.w3.org/2000/svg" width="45.934" height="49.371" viewBox="0 0 45.934 49.371">
  <g id="Group_241" data-name="Group 241" transform="translate(-20.98 28.672)">
    <path id="Path_4930" data-name="Path 4930" d="M66.754,283.492a3.406,3.406,0,0,0-3.388-2.391l-.328.013a3.814,3.814,0,0,0-2.547,1.115l-5.075,5.022a3.56,3.56,0,0,0-2.979-1.612H45.277a14.684,14.684,0,0,1-3.915-.52A9.626,9.626,0,0,0,32.4,287a12.964,12.964,0,0,0-2.384,2.57,3.219,3.219,0,0,0-4.152.414l-4.627,4.8a.9.9,0,0,0,.016,1.265l3.721,3.67a.9.9,0,0,0,1.264-1.281l-3.088-3.046,4.01-4.163a1.422,1.422,0,0,1,2.013-.034l7.155,6.943a1.421,1.421,0,0,1,.028,2.012l-3.941,4.043-1.014-.966a.9.9,0,1,0-1.241,1.3l1.658,1.579a.9.9,0,0,0,1.265-.024l4.561-4.68a3.224,3.224,0,0,0,.692-3.425l1.607-.187a19.6,19.6,0,0,1,2.254-.131H53.086c.167,0,.336-.007.5-.021l1.044-.087a6.04,6.04,0,0,0,4.1-2.108l7.34-8.636A3.5,3.5,0,0,0,66.754,283.492ZM64.7,285.647l-7.34,8.636a4.245,4.245,0,0,1-2.881,1.481l-1.044.087c-.116.01-.235.015-.352.015H42.193a21.421,21.421,0,0,0-2.462.142l-2.6.3-5.756-5.55a11.136,11.136,0,0,1,2.157-2.367,7.8,7.8,0,0,1,7.351-1.54,16.475,16.475,0,0,0,4.4.585h7.159a1.771,1.771,0,0,1,1.268.539,1.751,1.751,0,0,1,.458.88.888.888,0,0,0,.03.241,1.757,1.757,0,0,1-.384,1.2l-.028.035a1.752,1.752,0,0,1-1.373.659H46.176a.9.9,0,1,0,0,1.8h6.232a3.542,3.542,0,0,0,2.776-1.333l.028-.034a3.549,3.549,0,0,0,.781-2.215l5.766-5.706a2.024,2.024,0,0,1,1.352-.593l.329-.013a1.6,1.6,0,0,1,1.6,1.126A1.709,1.709,0,0,1,64.7,285.647Z" transform="translate(0 -285.659)" fill="#fff"/>
    <path id="Path_4931" data-name="Path 4931" d="M89.086,442.467a2.437,2.437,0,1,0,2.437,2.436A2.439,2.439,0,0,0,89.086,442.467Zm0,3.074a.637.637,0,1,1,.637-.637A.638.638,0,0,1,89.086,445.541Z" transform="translate(-60.952 -435.435)" fill="#fff"/>
    <path id="Path_4932" data-name="Path 4932" d="M308.911,420.38l-.046.011a.9.9,0,1,0,.411,1.751l.047-.011a.9.9,0,0,0-.412-1.752Z" transform="translate(-266.558 -414.912)" fill="#fff"/>
    <path id="Path_4933" data-name="Path 4933" d="M109.382,552.921l-.047.011a.9.9,0,0,0,.412,1.752l.046-.011a.9.9,0,0,0-.412-1.752Z" transform="translate(-81.364 -537.931)" fill="#fff"/>
    <text id="ERP" transform="translate(46.705 -7.672)" fill="#fff" font-size="19" font-family="SegoeUI, Segoe UI"><tspan x="-15.809" y="0">ERP</tspan></text>
  </g>
</svg>
