<svg xmlns="http://www.w3.org/2000/svg" width="40.8" height="25.5" viewBox="0 0 40.8 25.5">
  <g id="Group_218" data-name="Group 218" transform="translate(-899 -490.75)">
    <g id="Group_217" data-name="Group 217" transform="translate(899 490.75)">
      <path id="Path_4914" data-name="Path 4914" d="M38.409,104.766h-.8V101.18a3.186,3.186,0,0,0-4.863-2.71A3.192,3.192,0,0,0,29.644,96h0a3.191,3.191,0,0,0-3.187,3.187v5.578H14.345V99.187a3.188,3.188,0,0,0-6.294-.718,3.186,3.186,0,0,0-4.863,2.71v3.586h-.8A2.394,2.394,0,0,0,0,107.156v3.188a2.394,2.394,0,0,0,2.391,2.391h.8v3.586a3.186,3.186,0,0,0,4.863,2.71,3.192,3.192,0,0,0,3.105,2.469h0a3.191,3.191,0,0,0,3.188-3.187v-5.578H26.455v5.578a3.188,3.188,0,0,0,6.294.718,3.186,3.186,0,0,0,4.863-2.71v-3.586h.8a2.394,2.394,0,0,0,2.391-2.391v-3.187A2.394,2.394,0,0,0,38.409,104.766ZM3.188,111.141h-.8a.8.8,0,0,1-.8-.8v-3.187a.8.8,0,0,1,.8-.8h.8Zm4.781,5.18a1.594,1.594,0,0,1-3.187,0V101.18a1.594,1.594,0,1,1,3.188,0Zm4.782,1.992a1.6,1.6,0,0,1-1.594,1.594h0a1.6,1.6,0,0,1-1.594-1.594V99.187a1.594,1.594,0,0,1,3.188,0Zm13.7-10.359H20.878a.8.8,0,1,0,0,1.594h5.573v1.594H14.341v-4.781h12.11Zm4.787,10.359a1.594,1.594,0,0,1-3.188,0v-9.522a.477.477,0,0,1,0,.052v-.185a.477.477,0,0,1,0,.052V99.187a1.6,1.6,0,0,1,1.594-1.594h0a1.6,1.6,0,0,1,1.594,1.594Zm4.781-1.992a1.594,1.594,0,0,1-3.187,0V101.18a1.594,1.594,0,0,1,3.188,0Zm3.188-5.977a.8.8,0,0,1-.8.8h-.8v-4.781h.8a.8.8,0,0,1,.8.8Z" transform="translate(0 -96)" fill="#fff"/>
      <path id="Path_4915" data-name="Path 4915" d="M212.813,247.594a.8.8,0,0,1,0-1.594h0a.8.8,0,0,1,0,1.594Z" transform="translate(-195.121 -234.047)" fill="#fff"/>
    </g>
  </g>
</svg>
