<svg xmlns="http://www.w3.org/2000/svg" width="35.999" height="35.998" viewBox="0 0 35.999 35.998">
  <g id="Group_212" data-name="Group 212" transform="translate(0 -0.003)">
    <circle id="Ellipse_111" data-name="Ellipse 111" cx="1" cy="1" r="1" transform="translate(7.999 6.006)" fill="#fff"/>
    <path id="Path_4905" data-name="Path 4905" d="M31.484,16.725a2.787,2.787,0,0,0,1.7.574,2.812,2.812,0,0,0,1.705-5.049L31.359,9.535V.706a.7.7,0,0,0-.7-.7H26.437a.7.7,0,0,0-.7.7V5.212L19.7.577a2.813,2.813,0,0,0-3.408,0L10.941,4.693A.7.7,0,1,0,11.8,5.808L17.149,1.7a1.407,1.407,0,0,1,1.7,0L34.038,13.367a1.406,1.406,0,0,1-1.7,2.241L18.429,4.91a.7.7,0,0,0-.833-.018c-.032.022-13.931,10.713-13.932,10.714a1.406,1.406,0,0,1-.994.279,1.233,1.233,0,0,1-1.225-1.062,1.417,1.417,0,0,1,.52-1.459l4.818-3.7a.7.7,0,1,0-.857-1.115l-4.816,3.7A2.807,2.807,0,0,0,.074,15.134a2.623,2.623,0,0,0,2.46,2.151,2.807,2.807,0,0,0,1.982-.56h0l.126-.095v9.646a4.2,4.2,0,0,0-3.15,3.352A3.506,3.506,0,0,0,3.516,36H32.484a3.506,3.506,0,0,0,2.025-6.374,4.2,4.2,0,0,0-3.15-3.352V16.629ZM27.14,1.409h2.812V8.454L27.14,6.293ZM11.25,34.595H3.516a2.1,2.1,0,0,1-1.028-3.937.7.7,0,0,0,.355-.546,2.795,2.795,0,0,1,5.074-1.355.7.7,0,0,0,.736.277,2.084,2.084,0,0,1,2.6,2.021.71.71,0,0,0,.459.814,1.4,1.4,0,0,1-.459,2.726Zm12.108-3.842a2.793,2.793,0,0,0-1.042,1.03H13.683a2.793,2.793,0,0,0-1.042-1.03,3.566,3.566,0,0,0-.056-.377H23.414A3.582,3.582,0,0,0,23.359,30.753Zm-9.673,3.842a2.8,2.8,0,0,0,.377-1.406h7.875a2.8,2.8,0,0,0,.377,1.406Zm19.472-4.483a.7.7,0,0,0,.354.546,2.1,2.1,0,0,1-1.028,3.937H24.75a1.4,1.4,0,0,1-.459-2.726.71.71,0,0,0,.459-.814,2.084,2.084,0,0,1,2.6-2.021.7.7,0,0,0,.736-.277,2.795,2.795,0,0,1,5.074,1.355Zm-3.2-3.932a4.228,4.228,0,0,0-2.733,1.405,3.164,3.164,0,0,0-.361-.021,3.529,3.529,0,0,0-2.811,1.406h-12.1a3.529,3.529,0,0,0-2.811-1.406,3.163,3.163,0,0,0-.361.021A4.228,4.228,0,0,0,6.047,26.18V15.547L18,6.354l11.953,9.193Z" fill="#fff"/>
  </g>
</svg>
