<svg xmlns="http://www.w3.org/2000/svg" width="37.288" height="31.214" viewBox="0 0 37.288 31.214">
  <g id="Group_213" data-name="Group 213" transform="translate(0 -41.7)">
    <path id="Path_4906" data-name="Path 4906" d="M36.934,52.627h0l-3.891-2.339V42.428a.728.728,0,0,0-.728-.728H4.973a.728.728,0,0,0-.728.728v7.836L.35,52.628h0A.727.727,0,0,0,0,53.25V72.186a.728.728,0,0,0,.728.728H15.585a.728.728,0,0,0,0-1.457H3.332l15.226-9.243,15.377,9.243H21.7a.728.728,0,0,0,0,1.457H36.56a.728.728,0,0,0,.728-.728V53.25a.727.727,0,0,0-.354-.623Zm-4.244,3.8,3.141-1.888V70.9l-13.609-8.18L32.69,56.426Zm2.456-3.175-2.1,1.264V51.987ZM4.595,56.45l10.326,6.268L1.457,70.892V54.545l.977.593L4.595,56.45Zm-.35-1.917-1.055-.641L2.132,53.25l2.113-1.283Zm13.933,6.208-1.853,1.125L5.7,55.417V43.157H31.587V55.39L20.809,61.868l-1.878-1.129a.728.728,0,0,0-.753,0Z" fill="#fff"/>
    <circle id="Ellipse_112" data-name="Ellipse 112" cx="0.728" cy="0.728" r="0.728" transform="translate(17.916 71.457)" fill="#fff"/>
    <path id="Path_4907" data-name="Path 4907" d="M173.624,234.427a.728.728,0,0,0-.728-.728H160.515a.728.728,0,0,0,0,1.457H172.9A.728.728,0,0,0,173.624,234.427Z" transform="translate(-148.15 -178.016)" fill="#fff"/>
    <path id="Path_4908" data-name="Path 4908" d="M139.45,172.761a.728.728,0,0,0-.728-.728H120.515a.728.728,0,1,0,0,1.457h18.207A.728.728,0,0,0,139.45,172.761Z" transform="translate(-111.063 -120.841)" fill="#fff"/>
    <path id="Path_4909" data-name="Path 4909" d="M160.515,111.823H172.9a.728.728,0,1,0,0-1.457H160.515a.728.728,0,0,0,0,1.457Z" transform="translate(-148.15 -63.665)" fill="#fff"/>
  </g>
</svg>
