<svg xmlns="http://www.w3.org/2000/svg" width="36.547" height="44.682" viewBox="0 0 36.547 44.682">
  <g id="Group_242" data-name="Group 242" transform="translate(-20.98 148.997)">
    <path id="Path_4934" data-name="Path 4934" d="M57.4,283a2.71,2.71,0,0,0-2.7-1.9l-.261.011a3.034,3.034,0,0,0-2.027.887l-4.038,4a2.832,2.832,0,0,0-2.37-1.282h-5.7A11.682,11.682,0,0,1,37.2,284.3a7.659,7.659,0,0,0-7.134,1.494,10.315,10.315,0,0,0-1.9,2.045,2.561,2.561,0,0,0-3.3.329l-3.682,3.822a.716.716,0,0,0,.013,1.006l2.961,2.92a.716.716,0,0,0,1.005-1.019L22.7,292.471l3.191-3.312a1.131,1.131,0,0,1,1.6-.027l5.693,5.524a1.131,1.131,0,0,1,.022,1.6l-3.135,3.217-.807-.768a.716.716,0,1,0-.987,1.037L29.6,301a.716.716,0,0,0,1.006-.019l3.629-3.724a2.565,2.565,0,0,0,.551-2.725l1.278-.149a15.6,15.6,0,0,1,1.794-.1h8.667c.133,0,.267-.006.4-.017l.83-.069a4.806,4.806,0,0,0,3.264-1.677l5.84-6.871A2.785,2.785,0,0,0,57.4,283Zm-1.631,1.714-5.84,6.871a3.377,3.377,0,0,1-2.292,1.178l-.831.069c-.093.008-.187.012-.28.012H37.858a17.042,17.042,0,0,0-1.959.113l-2.07.241-4.579-4.416a8.859,8.859,0,0,1,1.716-1.883,6.2,6.2,0,0,1,5.849-1.225,13.108,13.108,0,0,0,3.5.466h5.7a1.409,1.409,0,0,1,1.009.429,1.393,1.393,0,0,1,.364.7.706.706,0,0,0,.024.192,1.4,1.4,0,0,1-.305.956l-.022.028a1.394,1.394,0,0,1-1.092.524H41.026a.716.716,0,1,0,0,1.432h4.959a2.818,2.818,0,0,0,2.209-1.06l.022-.027a2.824,2.824,0,0,0,.621-1.763l4.588-4.54a1.611,1.611,0,0,1,1.076-.472l.261-.01a1.274,1.274,0,0,1,1.269.9A1.36,1.36,0,0,1,55.768,284.717Z" transform="translate(0 -405.511)" fill="#fff"/>
    <path id="Path_4935" data-name="Path 4935" d="M88.588,442.467a1.939,1.939,0,1,0,1.939,1.938A1.941,1.941,0,0,0,88.588,442.467Zm0,2.445a.507.507,0,1,1,.507-.507A.508.508,0,0,1,88.588,444.912Z" transform="translate(-61.916 -557.656)" fill="#fff"/>
    <path id="Path_4936" data-name="Path 4936" d="M308.76,420.375l-.037.009a.716.716,0,1,0,.327,1.393l.037-.008a.716.716,0,0,0-.327-1.394Z" transform="translate(-270.775 -536.809)" fill="#fff"/>
    <path id="Path_4937" data-name="Path 4937" d="M109.231,552.916l-.037.009a.716.716,0,0,0,.328,1.394l.037-.008a.716.716,0,0,0-.327-1.394Z" transform="translate(-82.651 -661.774)" fill="#fff"/>
    <path id="Path_4938" data-name="Path 4938" d="M237,11l-2.744,3.658h1.829a10.97,10.97,0,0,1-20.106,6.078l-1.146,1.527a12.788,12.788,0,0,0,23.08-7.605h1.829L237,11Z" transform="translate(-182.775 -150.854)" fill="#fff"/>
    <path id="Path_4939" data-name="Path 4939" d="M142.277-136.193a10.987,10.987,0,0,1,10.975-10.975,10.97,10.97,0,0,1,9.131,4.9l1.146-1.527a12.78,12.78,0,0,0-10.276-5.2,12.818,12.818,0,0,0-12.8,12.8h-1.829l2.744,3.658,2.744-3.658h-1.829Z" transform="translate(-110.915)" fill="#fff"/>
  </g>
</svg>
