<svg xmlns="http://www.w3.org/2000/svg" width="33.075" height="34.85" viewBox="0 0 33.075 34.85">
  <g id="Group_206" data-name="Group 206" transform="translate(-13.045)">
    <g id="Group_205" data-name="Group 205" transform="translate(13.045)">
      <path id="Path_4890" data-name="Path 4890" d="M69,276.511a.68.68,0,1,0-.25-.826A.687.687,0,0,0,69,276.511Z" transform="translate(-64.914 -256.538)" fill="#fff"/>
      <path id="Path_4891" data-name="Path 4891" d="M122.594,276.511a.68.68,0,1,0-.25-.826A.687.687,0,0,0,122.594,276.511Z" transform="translate(-114.856 -256.537)" fill="#fff"/>
      <path id="Path_4892" data-name="Path 4892" d="M69.99,381.738a.68.68,0,1,0-.279.844A.687.687,0,0,0,69.99,381.738Z" transform="translate(-64.894 -355.363)" fill="#fff"/>
      <path id="Path_4893" data-name="Path 4893" d="M123.327,381.461a.681.681,0,1,0,.257.811.686.686,0,0,0-.257-.811Z" transform="translate(-114.834 -355.391)" fill="#fff"/>
      <path id="Path_4894" data-name="Path 4894" d="M46.049,12.932A2.022,2.022,0,0,0,45.1,11.7l-.835-.483a.8.8,0,0,1,0-1.332L45.1,9.4a2.036,2.036,0,0,0,.744-2.778l-1.557-2.7a2.052,2.052,0,0,0-2.778-.745l-.835.483A.789.789,0,0,1,39.522,3V2.034A2.036,2.036,0,0,0,37.489,0H34.375a2.036,2.036,0,0,0-2.034,2.034V3a.789.789,0,0,1-1.153.666l-.836-.483a2.053,2.053,0,0,0-2.778.745l-1.557,2.7A2.053,2.053,0,0,0,26.762,9.4l.835.482a.8.8,0,0,1,0,1.332l-.835.482a2.053,2.053,0,0,0-.745,2.778l.33.571H15.073a.681.681,0,0,0-.51.23,6.288,6.288,0,0,0-.362,7.729,6.232,6.232,0,0,0-1.156,3.63v.008a6.546,6.546,0,0,0,1.5,4.071.681.681,0,0,0,.526.249h1.043v2.526h-.99a.681.681,0,0,0,0,1.361H18.5a.681.681,0,0,0,0-1.361H17.478V30.963H32.41v2.526h-.99a.681.681,0,0,0,0,1.361H34.8a.681.681,0,0,0,0-1.361H33.771V30.963h1.155a.853.853,0,0,0,.654-.4,6.055,6.055,0,0,0,1.374-3.92s0-.005,0-.008a6.232,6.232,0,0,0-1.156-3.63,6.037,6.037,0,0,0,.907-1.906h.783a2.036,2.036,0,0,0,2.034-2.034V18.1a.789.789,0,0,1,1.153-.666l.835.482a2.036,2.036,0,0,0,2.778-.744l1.557-2.7a2.018,2.018,0,0,0,.2-1.543ZM15.394,16.408H27.133l.441.764a2.053,2.053,0,0,0,2.778.744l.836-.482a.79.79,0,0,1,1.153.666v.965A2.055,2.055,0,0,0,34.375,21.1h.9a4.523,4.523,0,0,1-.669,1.225H15.391a4.933,4.933,0,0,1,0-5.916ZM34.608,29.6h-19.2a5.127,5.127,0,0,1-1-2.954,4.862,4.862,0,0,1,.985-2.962H34.608a4.863,4.863,0,0,1,.985,2.962,4.789,4.789,0,0,1-.985,2.954ZM44.667,13.795l-1.557,2.7a.679.679,0,0,1-.918.246l-.835-.482a2.163,2.163,0,0,0-3.2,1.845v.965a.673.673,0,0,1-.673.673H34.375a.679.679,0,0,1-.672-.672V18.1a2.164,2.164,0,0,0-3.2-1.845l-.835.482a.679.679,0,0,1-.918-.246l-1.557-2.7a.679.679,0,0,1,.247-.918l.834-.482a2.176,2.176,0,0,0,0-3.69l-.835-.482A.679.679,0,0,1,27.2,7.3l1.557-2.7a.679.679,0,0,1,.918-.247l.836.483A2.164,2.164,0,0,0,33.7,3V2.034a.673.673,0,0,1,.672-.673h3.114a.673.673,0,0,1,.673.673V3a2.164,2.164,0,0,0,3.2,1.845l.835-.483a.679.679,0,0,1,.918.247l1.557,2.7a.673.673,0,0,1-.246.918l-.836.482a2.176,2.176,0,0,0,0,3.69l.835.482c.115,0,.254.247.288.333A.675.675,0,0,1,44.667,13.795Z" transform="translate(-13.045)" fill="#fff"/>
    </g>
  </g>
</svg>
