<svg xmlns="http://www.w3.org/2000/svg" width="26.582" height="37.044" viewBox="0 0 26.582 37.044">
  <g id="Group_209" data-name="Group 209" transform="translate(-72)">
    <path id="Path_4897" data-name="Path 4897" d="M242.87,274.218a1.085,1.085,0,1,1-1.085-1.085A1.085,1.085,0,0,1,242.87,274.218Z" transform="translate(-156.493 -253.371)" fill="#fff"/>
    <path id="Path_4898" data-name="Path 4898" d="M242.87,330.452a1.085,1.085,0,1,1-1.085-1.085A1.085,1.085,0,0,1,242.87,330.452Z" transform="translate(-156.493 -305.536)" fill="#fff"/>
    <path id="Path_4899" data-name="Path 4899" d="M97.5,34.874H95.676V28.683A8.691,8.691,0,0,0,93.067,22.5l-4.075-3.973,4.075-3.973a8.69,8.69,0,0,0,2.609-6.187V2.171H97.5A1.085,1.085,0,1,0,97.5,0H73.085a1.085,1.085,0,1,0,0,2.171h1.821V8.362a8.691,8.691,0,0,0,2.609,6.187l4.075,3.973L77.515,22.5a8.691,8.691,0,0,0-2.609,6.187v6.191H73.085a1.085,1.085,0,1,0,0,2.171H97.5a1.085,1.085,0,1,0,0-2.171Zm-20.42-6.191A6.506,6.506,0,0,1,79.03,24.05L83.9,19.3a1.086,1.086,0,0,0,0-1.554l-4.873-4.75a6.507,6.507,0,0,1-1.954-4.633V2.171H93.506V8.362a6.506,6.506,0,0,1-1.954,4.633l-4.872,4.75a1.085,1.085,0,0,0,0,1.554l4.872,4.75a6.507,6.507,0,0,1,1.954,4.633v6.191h-.158c0-.026,0-.051,0-.077a4.821,4.821,0,0,0-2.68-4.336l-4.9-2.448a1.086,1.086,0,0,0-.971,0l-4.895,2.448a4.82,4.82,0,0,0-2.68,4.336c0,.026,0,.052,0,.077h-.158Zm14.108,6.191H79.4c0-.026,0-.051,0-.077a2.662,2.662,0,0,1,1.48-2.394l4.41-2.2L89.7,32.4a2.661,2.661,0,0,1,1.48,2.394C91.181,34.823,91.183,34.848,91.184,34.874Z" fill="#fff"/>
  </g>
</svg>
