<svg id="Professional_Certificate_Reimbursement" data-name="Professional Certificate Reimbursement" xmlns="http://www.w3.org/2000/svg" width="35.58" height="26.756" viewBox="0 0 35.58 26.756">
  <path id="Path_5107" data-name="Path 5107" d="M174.16,169.236a.521.521,0,0,0-.521-.521H155.783a.521.521,0,0,0,0,1.042h17.856a.521.521,0,0,0,.521-.521Zm0,0" transform="translate(-144.473 -156.991)" fill="#fff"/>
  <path id="Path_5108" data-name="Path 5108" d="M83.1,169.757h2.626a.521.521,0,1,0,0-1.042H83.1a.521.521,0,1,0,0,1.042Zm0,0" transform="translate(-76.84 -156.991)" fill="#fff"/>
  <path id="Path_5109" data-name="Path 5109" d="M98.978,211.951a.521.521,0,0,0-.521-.521H83.1a.521.521,0,1,0,0,1.042H98.457a.521.521,0,0,0,.521-.521Zm0,0" transform="translate(-76.84 -196.738)" fill="#fff"/>
  <path id="Path_5110" data-name="Path 5110" d="M83.1,254.145a.521.521,0,1,0,0,1.042H97.787a.521.521,0,1,0,0-1.042Zm0,0" transform="translate(-76.84 -236.484)" fill="#fff"/>
  <path id="Path_5111" data-name="Path 5111" d="M58.134,48.968a.521.521,0,1,0,0,1.042h.928a1,1,0,0,0,1-1V29.426a1,1,0,0,0-1-1H29.426a1,1,0,0,0-1,1V49.014a1,1,0,0,0,1,1H48.783a.521.521,0,0,0,0-1.042H29.472v-19.5H59.015v19.5h-.881Zm0,0" transform="translate(-26.454 -26.454)" fill="#fff"/>
  <path id="Path_5112" data-name="Path 5112" d="M34.534,0H1.046A1.047,1.047,0,0,0,0,1.046v23.44a1.047,1.047,0,0,0,1.046,1.046H22.329a.521.521,0,0,0,0-1.042H1.043V1.047H34.534V24.49H31.68a.521.521,0,1,0,0,1.042h2.854a1.047,1.047,0,0,0,1.046-1.045V1.046A1.047,1.047,0,0,0,34.534,0Zm0,0" fill="#fff"/>
  <path id="Path_5113" data-name="Path 5113" d="M360.435,246.527a2.1,2.1,0,1,0,2.1,2.1,2.1,2.1,0,0,0-2.1-2.1Zm0,3.165a1.061,1.061,0,1,1,1.061-1.061,1.061,1.061,0,0,1-1.061,1.061Zm0,0" transform="translate(-333.431 -229.396)" fill="#fff"/>
  <path id="Path_5114" data-name="Path 5114" d="M334.112,216.149a.328.328,0,0,1,0-.376,1.369,1.369,0,0,0-.677-2.085.327.327,0,0,1-.221-.3,1.369,1.369,0,0,0-1.774-1.288.327.327,0,0,1-.358-.116,1.369,1.369,0,0,0-2.192,0,.328.328,0,0,1-.358.116,1.369,1.369,0,0,0-1.773,1.289.327.327,0,0,1-.221.3,1.369,1.369,0,0,0-.678,2.085.327.327,0,0,1,0,.376,1.369,1.369,0,0,0,.678,2.085.327.327,0,0,1,.221.3,1.355,1.355,0,0,0,.456,1v3.224a.729.729,0,0,0,.413.66.738.738,0,0,0,.321.074.73.73,0,0,0,.453-.159l1.584-1.25,1.584,1.25a.734.734,0,0,0,1.188-.576v-3.225a1.355,1.355,0,0,0,.456-1,.327.327,0,0,1,.221-.3,1.369,1.369,0,0,0,.677-2.085Zm-2.4,5.977-1.275-1.006a.732.732,0,0,0-.909,0l-1.275,1.006v-2.244a1.378,1.378,0,0,0,.275-.055.327.327,0,0,1,.358.116,1.369,1.369,0,0,0,2.192,0,.327.327,0,0,1,.358-.116,1.372,1.372,0,0,0,.275.055Zm1.589-5.087a.32.32,0,0,1-.2.208,1.372,1.372,0,0,0-.928,1.277.32.32,0,0,1-.135.26l-.031.02-.024.013a.315.315,0,0,1-.233.015,1.372,1.372,0,0,0-1.5.488.327.327,0,0,1-.523,0,1.371,1.371,0,0,0-1.5-.488.315.315,0,0,1-.233-.015l-.025-.013-.031-.02a.321.321,0,0,1-.135-.26,1.372,1.372,0,0,0-.927-1.277.327.327,0,0,1-.162-.5,1.371,1.371,0,0,0,0-1.578.327.327,0,0,1,.162-.5,1.372,1.372,0,0,0,.927-1.277.327.327,0,0,1,.423-.307,1.372,1.372,0,0,0,1.5-.488.326.326,0,0,1,.523,0,1.373,1.373,0,0,0,1.5.488.327.327,0,0,1,.423.307,1.371,1.371,0,0,0,.928,1.277.327.327,0,0,1,.161.5,1.372,1.372,0,0,0,0,1.578.32.32,0,0,1,.044.292Zm0,0" transform="translate(-302.982 -196.737)" fill="#fff"/>
  <path id="Path_5115" data-name="Path 5115" d="M223.069,64.47a.688.688,0,0,0-.562-.471l-1.3-.181-.572-1.175h0a.692.692,0,0,0-1.244,0l-.572,1.175L217.529,64a.692.692,0,0,0-.384,1.183l.941.908-.228,1.287a.692.692,0,0,0,1.006.731l1.154-.614,1.154.614a.692.692,0,0,0,1.006-.731l-.227-1.287.941-.907a.687.687,0,0,0,.177-.714Zm-1.976,1a.69.69,0,0,0-.2.618l.135.762-.684-.364a.692.692,0,0,0-.65,0l-.683.363.135-.763a.691.691,0,0,0-.2-.618l-.557-.537.767-.107a.691.691,0,0,0,.526-.382l.339-.7.339.7a.691.691,0,0,0,.526.382l.767.107Zm0,0" transform="translate(-201.858 -57.928)" fill="#fff"/>
</svg>
