<svg xmlns="http://www.w3.org/2000/svg" width="37.075" height="37.075" viewBox="0 0 37.075 37.075">
  <g id="Group_222" data-name="Group 222" transform="translate(0 -0.002)">
    <g id="Group_221" data-name="Group 221" transform="translate(0 0.002)">
      <g id="Group_220" data-name="Group 220">
        <g id="Group_219" data-name="Group 219">
          <path id="Path_4916" data-name="Path 4916" d="M36.863,31.8l-7-7,.261-.261A.724.724,0,1,0,29.1,23.506l-.261.261L26.827,21.76a14.431,14.431,0,1,0-5.069,5.069l2.007,2.007-.252.252a.724.724,0,1,0,1.024,1.024l.252-.252,7,7a.724.724,0,0,0,1.024,0l4.045-4.045a.724.724,0,0,0,0-1.024ZM1.448,14.422A12.971,12.971,0,1,1,14.42,27.393,12.986,12.986,0,0,1,1.448,14.422Zm21.54,11.59A14.54,14.54,0,0,0,26.01,22.99l1.8,1.8L24.79,27.813Zm9.317,9.317-6.492-6.492,3.021-3.021,6.492,6.492Z" transform="translate(0 -0.002)" fill="#fff"/>
          <path id="Path_4917" data-name="Path 4917" d="M71.933,57.071a10.518,10.518,0,0,0-12.012-2.03.724.724,0,1,0,.631,1.3,9.062,9.062,0,0,1,10.609,14.3v-.552a3.809,3.809,0,0,0-3.8-3.8h-.2a3.149,3.149,0,0,0,.51-1.72v-.891a3.168,3.168,0,1,0-6.336,0v.891a3.148,3.148,0,0,0,.51,1.72h-.2a3.809,3.809,0,0,0-3.8,3.8v.553a9.069,9.069,0,0,1-1.5-10.094.724.724,0,0,0-1.3-.631,10.51,10.51,0,1,0,16.893-2.851Zm-9.151,7.5v-.891a1.72,1.72,0,1,1,3.44,0v.891a1.72,1.72,0,1,1-3.44,0Zm1.72,8.99a9.05,9.05,0,0,1-5.211-1.644V70.094a2.359,2.359,0,0,1,2.356-2.356h5.71a2.359,2.359,0,0,1,2.356,2.356v1.822A9.045,9.045,0,0,1,64.5,73.559Z" transform="translate(-50.082 -50.083)" fill="#fff"/>
          <path id="Path_4918" data-name="Path 4918" d="M94.3,95.027a.724.724,0,1,0-.512-.212A.729.729,0,0,0,94.3,95.027Z" transform="translate(-86.803 -86.803)" fill="#fff"/>
        </g>
      </g>
    </g>
  </g>
</svg>
