<svg xmlns="http://www.w3.org/2000/svg" width="37.942" height="37.935" viewBox="0 0 37.942 37.935">
  <g id="Relocation_Allowance" data-name="Relocation Allowance" transform="translate(-0.232)">
    <path id="Path_5117" data-name="Path 5117" d="M373.121,0A4.427,4.427,0,0,0,368.7,4.422a4.6,4.6,0,0,0,.618,2.311l3.121,5.958a4.423,4.423,0,1,0,1.366,0l3.084-5.781a4.634,4.634,0,0,0,.654-2.374V4.422A4.427,4.427,0,0,0,373.121,0Zm3.158,17.055a3.142,3.142,0,0,1-.064.632h-3.094V18.95h2.51a3.151,3.151,0,0,1-5.6-2.527h3.094V15.16h-2.51a3.147,3.147,0,0,1,5.669,1.9Zm0-12.518a3.41,3.41,0,0,1-.489,1.752l-2.664,4.992-2.7-5.161a3.372,3.372,0,0,1-.46-1.7,3.159,3.159,0,1,1,6.317,0Zm0,0" transform="translate(-339.371)" fill="#fff"/>
    <path id="Path_5118" data-name="Path 5118" d="M402.594,32a1.9,1.9,0,1,0,1.895,1.9A1.895,1.895,0,0,0,402.594,32Zm0,2.527a.632.632,0,1,1,.632-.632.632.632,0,0,1-.632.632Zm0,0" transform="translate(-368.845 -29.473)" fill="#fff"/>
    <path id="Path_5119" data-name="Path 5119" d="M.9,329.263a10.035,10.035,0,0,1,3.487.633,13.664,13.664,0,0,1-4.118.63v1.263a15.707,15.707,0,0,0,3.768-.47,14.075,14.075,0,0,1,1.04,2.581c-1.556.1-3.2.162-4.806.162v1.263c1.712,0,3.474-.065,5.129-.18a22.293,22.293,0,0,1,.5,3.373c-1.8.145-3.724.225-5.626.225V340c1.915,0,3.859-.08,5.678-.225,0,.075.007.151.007.225h1.26c0-.112-.009-.226-.011-.339,1.395-.139,2.682-.32,3.788-.532,0,.08.013.159.013.239,0,.2-.006.4-.017.594l1.261.075c.013-.222.019-.444.019-.669A11.383,11.383,0,0,0,.9,328q-.336,0-.668.019l.073,1.261c.2-.011.4-.017.6-.017ZM7.154,338.4a23.68,23.68,0,0,0-.49-3.36c1.162-.1,2.234-.233,3.172-.384a10.036,10.036,0,0,1,1.049,3.211c-1.079.213-2.35.392-3.731.532Zm1.955-4.907c-.834.12-1.769.222-2.757.307a16.254,16.254,0,0,0-1.1-2.882A5.085,5.085,0,0,0,5.9,330.6a10.184,10.184,0,0,1,3.211,2.9Zm0,0" transform="translate(0 -302.102)" fill="#fff"/>
    <path id="Path_5120" data-name="Path 5120" d="M1.963,146.118A4.428,4.428,0,0,1,6.381,141.7l17.059-.012a.632.632,0,0,0,.629-.582l1.517,1.214-1.517,1.214a.632.632,0,0,0-.63-.582H6.383a3.162,3.162,0,0,0-3.158,3.158v3.79H4.489v-3.788a1.9,1.9,0,0,1,1.894-1.895H22.807v.632a.631.631,0,0,0,1.026.493l3.158-2.527a.631.631,0,0,0,0-.986L23.834,139.3a.631.631,0,0,0-1.026.493v.632H21.544v-.632a1.888,1.888,0,0,0-.684-1.451,1.895,1.895,0,1,0-3.685,0,1.888,1.888,0,0,0-.684,1.451v.636H15.228v-.637a1.888,1.888,0,0,0-.684-1.451,1.895,1.895,0,1,0-3.685,0,1.888,1.888,0,0,0-.684,1.451v.641H8.911v-.641a1.888,1.888,0,0,0-.684-1.451,1.895,1.895,0,1,0-3.685,0,1.888,1.888,0,0,0-.684,1.451v1.244A5.687,5.687,0,0,0,.7,146.118v1.251H1.963Zm15.792-6.329a.632.632,0,0,1,.425-.592.632.632,0,0,0,.314-.951.623.623,0,0,1-.108-.353.632.632,0,1,1,1.155.353.632.632,0,0,0,.315.951.631.631,0,0,1,.425.591v.634H17.754Zm-6.317,0a.632.632,0,0,1,.425-.592.632.632,0,0,0,.314-.951.623.623,0,0,1-.108-.353.632.632,0,1,1,1.155.353.632.632,0,0,0,.315.951.631.631,0,0,1,.425.591v.638H11.437Zm-6.317,0a.632.632,0,0,1,.425-.592.632.632,0,0,0,.314-.951.623.623,0,0,1-.108-.353.632.632,0,1,1,1.155.353.632.632,0,0,0,.315.951.631.631,0,0,1,.425.591v.642H6.38a5.7,5.7,0,0,0-1.259.146Zm0,0" transform="translate(-0.428 -125.261)" fill="#fff"/>
    <path id="Path_5121" data-name="Path 5121" d="M175.714,293.26a2.527,2.527,0,1,0-4.76,0,2.39,2.39,0,0,0-1.41,2.177V298.1h-.632v-2.667a2.39,2.39,0,0,0-1.409-2.177,2.527,2.527,0,1,0-4.761,0,2.39,2.39,0,0,0-1.41,2.177V298.1H160.7v1.263h16.423a3.162,3.162,0,0,0,3.158-3.158v-3.79a.632.632,0,0,0-.632-.632h-.37l2.265-2.265,2.265,2.265h-.37a.632.632,0,0,0-.632.632v5.053a4.427,4.427,0,0,1-4.422,4.422h-5.053v1.263h5.053a5.692,5.692,0,0,0,5.685-5.685V293.05h1.263a.631.631,0,0,0,.447-1.078l-3.79-3.79a.631.631,0,0,0-.893,0l-3.79,3.79a.632.632,0,0,0,.447,1.078h1.263v3.158a1.9,1.9,0,0,1-1.895,1.895v-2.667a2.389,2.389,0,0,0-1.408-2.176ZM162.6,295.437a1.125,1.125,0,0,1,1.123-1.123.632.632,0,0,0,.469-1.054,1.248,1.248,0,0,1-.329-.841,1.263,1.263,0,0,1,2.5-.274,1.244,1.244,0,0,1-.3,1.114.631.631,0,0,0,.47,1.054,1.125,1.125,0,0,1,1.123,1.123V298.1H162.6Zm8.212,2.667v-2.667a1.125,1.125,0,0,1,1.123-1.123.632.632,0,0,0,.469-1.054,1.248,1.248,0,0,1-.329-.841,1.263,1.263,0,0,1,2.5-.274,1.244,1.244,0,0,1-.3,1.114.631.631,0,0,0,.47,1.054,1.125,1.125,0,0,1,1.123,1.123V298.1Zm0,0" transform="translate(-147.795 -265.257)" fill="#fff"/>
    <path id="Path_5122" data-name="Path 5122" d="M.7,296H1.963v1.263H.7Zm0,0" transform="translate(-0.428 -272.628)" fill="#fff"/>
    <path id="Path_5123" data-name="Path 5123" d="M288.7,464h1.263v1.263H288.7Zm0,0" transform="translate(-265.688 -427.364)" fill="#fff"/>
    <path id="Path_5124" data-name="Path 5124" d="M168.7,464h8.212v1.263H168.7Zm0,0" transform="translate(-155.163 -427.364)" fill="#fff"/>
  </g>
</svg>
