<svg xmlns="http://www.w3.org/2000/svg" width="37.001" height="37.001" viewBox="0 0 37.001 37.001">
  <g id="Group_211" data-name="Group 211" transform="translate(0 -0.002)">
    <g id="Group_210" data-name="Group 210" transform="translate(0 0.002)">
      <path id="Path_4900" data-name="Path 4900" d="M198.962,210.892a.722.722,0,1,0,.511-.212A.728.728,0,0,0,198.962,210.892Z" transform="translate(-184.387 -195.455)" fill="#fff"/>
      <path id="Path_4901" data-name="Path 4901" d="M36.278,15.227h-18.3a.723.723,0,0,0,0,1.445H35.555V32.984H14.429a2.762,2.762,0,0,0-.578-.751,2.774,2.774,0,0,0,.342-.377H31.427a.723.723,0,0,0,.723-.723A1.549,1.549,0,0,1,33.7,29.586a.723.723,0,0,0,.723-.723v-8.07a.723.723,0,0,0-.723-.723,1.549,1.549,0,0,1-1.547-1.547.723.723,0,0,0-.723-.723H9.465a.723.723,0,0,0-.723.723A1.549,1.549,0,0,1,7.2,20.07a.723.723,0,0,0-.723.723v2.623H5.348v-3.99L8.1,16.673H12.2a.723.723,0,0,0,0-1.445H9.547l5.47-5.47,2.56,2.56a.723.723,0,0,0,1.022,0L24.49,6.426l1.037,1.037A.723.723,0,0,0,26.746,7.1L28,.867a.723.723,0,0,0-.851-.851L20.921,1.269a.723.723,0,0,0-.368,1.22l.843.843L18.088,6.639l-2.56-2.56a.723.723,0,0,0-1.022,0L10.163,8.421a.723.723,0,0,0,1.022,1.022l3.832-3.832,2.56,2.56a.723.723,0,0,0,1.022,0l4.329-4.329a.723.723,0,0,0,0-1.022l-.4-.4,3.841-.773L25.6,5.488,25,4.893a.723.723,0,0,0-1.022,0l-5.891,5.891-2.56-2.56a.723.723,0,0,0-1.022,0L2.821,19.909,1.77,18.858,7.1,13.531a.723.723,0,0,0-1.022-1.022L.237,18.347a.723.723,0,0,0,0,1.022L2.31,21.442a.723.723,0,0,0,1.022,0l.57-.57v2.545H2.746a2.745,2.745,0,0,0-1.854,4.77,2.742,2.742,0,0,0,0,4.047A2.745,2.745,0,0,0,2.746,37H36.278A.723.723,0,0,0,37,36.28V15.95A.723.723,0,0,0,36.278,15.227Zm-28.36,6.2A3,3,0,0,0,10.1,19.246H30.793a3,3,0,0,0,2.182,2.182v6.8a3,3,0,0,0-2.182,2.182H14.734c0-.066.008-.133.008-.2a2.739,2.739,0,0,0-.892-2.023A2.745,2.745,0,0,0,12,23.416H7.918V21.427ZM1.445,26.162a1.3,1.3,0,0,1,1.3-1.3H12a1.3,1.3,0,1,1,0,2.6H2.746A1.3,1.3,0,0,1,1.445,26.162Zm0,4.047a1.3,1.3,0,0,1,1.3-1.3H12a1.3,1.3,0,1,1,0,2.6H2.746A1.3,1.3,0,0,1,1.445,30.209Zm3.18,5.348H2.746a1.3,1.3,0,0,1,0-2.6H12a1.3,1.3,0,0,1,0,2.6Zm30.93,0H14.414a2.727,2.727,0,0,0,.322-1.128H35.555Z" transform="translate(0 -0.002)" fill="#fff"/>
      <path id="Path_4902" data-name="Path 4902" d="M372.435,334.982h1.029a.723.723,0,0,0,0-1.445h-1.029a.723.723,0,1,0,0,1.445Z" transform="translate(-344.849 -309.433)" fill="#fff"/>
      <path id="Path_4903" data-name="Path 4903" d="M233.208,297.964a3.85,3.85,0,1,0-3.849-3.85A3.854,3.854,0,0,0,233.208,297.964Zm0-6.254a2.4,2.4,0,1,1-2.4,2.4A2.407,2.407,0,0,1,233.208,291.709Z" transform="translate(-212.784 -269.288)" fill="#fff"/>
      <path id="Path_4904" data-name="Path 4904" d="M110.283,143.435a.723.723,0,1,0-.511-.212A.725.725,0,0,0,110.283,143.435Z" transform="translate(-101.642 -131.729)" fill="#fff"/>
    </g>
  </g>
</svg>
