<svg id="Group_204" data-name="Group 204" xmlns="http://www.w3.org/2000/svg" width="38.074" height="32.997" viewBox="0 0 38.074 32.997">
  <g id="Group_201" data-name="Group 201" transform="translate(0 6.346)">
    <g id="Group_200" data-name="Group 200">
      <path id="Path_4888" data-name="Path 4888" d="M15.462,86.39a.633.633,0,0,0-.232-.044H12.691a.635.635,0,0,0-.6.418l-.673,1.85-.022-.06a3.363,3.363,0,0,0-3.151-2.207H8.233a3.14,3.14,0,0,0,.651-1.9V83.173a3.173,3.173,0,0,0-6.346,0v1.269a3.14,3.14,0,0,0,.651,1.9H3.173A3.177,3.177,0,0,0,0,89.518v7.615a.635.635,0,0,0,.635.635h1.9v6.155l-1.163,1.742a.635.635,0,0,0,.528.987H9.518a.635.635,0,0,0,.528-.987l-1.163-1.742V92.206l.16.317a2.595,2.595,0,0,0,4.729-.2L14.8,89.751l1.015-2.538A.635.635,0,0,0,15.462,86.39ZM3.807,83.173a1.9,1.9,0,0,1,3.807,0v1.269a1.9,1.9,0,1,1-3.807,0ZM2.538,96.5H1.269V95.23H2.538Zm3.807,8.884V97.768H5.077v7.615H3.09l.611-.917a.639.639,0,0,0,.107-.352V96.5H7.615v7.615a.639.639,0,0,0,.107.352l.611.917Zm6.249-13.524a1.326,1.326,0,0,1-2.416.1L8.82,89.235a.635.635,0,0,0-1.206.284V95.23H3.807V89.518a.635.635,0,1,0-1.269,0V93.96H1.269V89.518a1.9,1.9,0,0,1,1.9-1.9h1.9V93.96H6.346V87.615h1.9a2.089,2.089,0,0,1,1.958,1.371l.619,1.7a.635.635,0,0,0,1.193,0l.194-.534h1.064Zm1.19-2.975h-1.11l.461-1.269h1.157Z" transform="translate(0 -80)" fill="#fff"/>
    </g>
  </g>
  <g id="Group_203" data-name="Group 203" transform="translate(10.153)">
    <g id="Group_202" data-name="Group 202">
      <path id="Path_4889" data-name="Path 4889" d="M155.286,3.807a.635.635,0,0,0,.635-.635V.635A.635.635,0,0,0,155.286,0H128.635A.635.635,0,0,0,128,.635V3.173a.635.635,0,0,0,.635.635h.635v7.615h1.269V3.807h22.844v13.96H133.077v1.269h8.249v2.8L137.2,24.2l.629,1.1,3.5-2v2.079H142.6V23.3l3.49,2,.629-1.1-4.12-2.356v-2.8h13.326V17.768h-1.269V3.807ZM129.269,2.538V1.269h25.383V2.538Z" transform="translate(-128)" fill="#fff"/>
    </g>
  </g>
</svg>
