<svg xmlns="http://www.w3.org/2000/svg" width="62" height="62" viewBox="0 0 62 62">
  <g id="Group_771" data-name="Group 771" transform="translate(-1284 -393)">
    <circle id="Ellipse_73" data-name="Ellipse 73" cx="31" cy="31" r="31" transform="translate(1284 393)" fill="#9bc9ed"/>
    <g id="Group_208" data-name="Group 208" transform="translate(1296.462 401.463)">
      <g id="Group_207" data-name="Group 207">
        <path id="Path_4895" data-name="Path 4895" d="M36.863,64.384a4.328,4.328,0,0,0-6.114,0,2.875,2.875,0,0,1-4.065,0,4.332,4.332,0,0,0-2.363-1.209l1.772-6.612,9.649,2.585.187-.7-.183.7a.724.724,0,0,0,.887-.512,12.907,12.907,0,0,0-7.068-15.046l.234-.872a2.172,2.172,0,0,0-4.2-1.124l-.234.875a12.907,12.907,0,0,0-13.628,9.5.724.724,0,0,0,.512.887L21.9,55.438,19.3,65.121a2.871,2.871,0,0,1-2.8-.738,4.328,4.328,0,0,0-6.114,0,2.878,2.878,0,0,1-4.065,0,4.323,4.323,0,0,0-6.114,0A.725.725,0,0,0,0,64.9V73.44a.724.724,0,0,0,.724.724H9.18a.724.724,0,1,0,0-1.448H1.448V71.165a116.86,116.86,0,0,1,17.089-.911,116.86,116.86,0,0,1,17.089.911v1.551H15.7a.724.724,0,1,0,0,1.448H36.351a.724.724,0,0,0,.724-.724V64.9A.724.724,0,0,0,36.863,64.384ZM18.037,52.9a15.882,15.882,0,0,1,3.893-6.725,7.092,7.092,0,0,1,3.33-1.957A14.74,14.74,0,0,0,24.1,46.229a45.453,45.453,0,0,0-2.772,7.558ZM30.706,56.3l-3.29-.882a45.462,45.462,0,0,0,1.379-7.931,14.749,14.749,0,0,0,0-2.317,7.092,7.092,0,0,1,1.906,3.36,15.882,15.882,0,0,1,.009,7.77Zm-5.511-9.01A8.021,8.021,0,0,1,27.13,44.3a8.022,8.022,0,0,1,.183,3.553,45.981,45.981,0,0,1-1.3,7.185l-3.29-.881A46,46,0,0,1,25.195,47.29ZM35.4,57.557l-3.294-.883a17.37,17.37,0,0,0-.016-8.543,10.919,10.919,0,0,0-.608-1.637A11.46,11.46,0,0,1,35.4,57.557ZM27,41.97a.724.724,0,1,1,1.4.375l-.192.715c-.226-.074-.462-.145-.694-.207h0c-.233-.062-.472-.119-.705-.167Zm-4.738,2.058a10.913,10.913,0,0,0-1.341,1.111,17.37,17.37,0,0,0-4.285,7.391l-3.29-.881a11.46,11.46,0,0,1,8.916-7.621Zm2.431,12.16L21.31,68.817q-.739-.006-1.5-.009l3.482-12.995ZM5.3,65.408a4.328,4.328,0,0,0,6.114,0,2.878,2.878,0,0,1,4.066,0,4.318,4.318,0,0,0,3.408,1.253l-.575,2.146a118.311,118.311,0,0,0-16.866.9V65.215a2.879,2.879,0,0,1,3.853.192Zm17.5,3.427,1.139-4.251a2.878,2.878,0,0,1,1.716.824,4.328,4.328,0,0,0,6.114,0,2.875,2.875,0,0,1,3.853-.192V69.7A99.4,99.4,0,0,0,22.8,68.835Z" transform="translate(0 -37.089)" fill="#fff"/>
        <path id="Path_4896" data-name="Path 4896" d="M5,9.993A5,5,0,1,0,0,5,5,5,0,0,0,5,9.993ZM5,1.448A3.548,3.548,0,1,1,1.448,5,3.552,3.552,0,0,1,5,1.448Z" transform="translate(1.721 2.895)" fill="#fff"/>
        <circle id="Ellipse_110" data-name="Ellipse 110" cx="0.724" cy="0.724" r="0.724" transform="translate(11.714 35.627)" fill="#fff"/>
      </g>
    </g>
  </g>
</svg>
