<svg xmlns="http://www.w3.org/2000/svg" width="62" height="62" viewBox="0 0 62 62">
  <g id="Group_774" data-name="Group 774" transform="translate(-524 -523)">
    <circle id="Ellipse_65" data-name="Ellipse 65" cx="31" cy="31" r="31" transform="translate(524 523)" fill="#70cfaf"/>
    <g id="Group_216" data-name="Group 216" transform="translate(498.793 534.546)">
      <g id="Group_215" data-name="Group 215" transform="translate(40.218 0)">
        <g id="Group_214" data-name="Group 214" transform="translate(0 0)">
          <path id="Path_4910" data-name="Path 4910" d="M122.62,156.461h5.764a.9.9,0,0,0,0-1.8H122.62a.9.9,0,0,0,0,1.8Z" transform="translate(-114.694 -141.329)" fill="#fff"/>
          <path id="Path_4911" data-name="Path 4911" d="M133.788,222.579H122.62a.9.9,0,1,0,0,1.8h11.168a.9.9,0,0,0,0-1.8Z" transform="translate(-114.694 -203.394)" fill="#fff"/>
          <path id="Path_4912" data-name="Path 4912" d="M133.788,290.5H122.62a.9.9,0,1,0,0,1.8h11.168a.9.9,0,0,0,0-1.8Z" transform="translate(-114.694 -265.458)" fill="#fff"/>
          <path id="Path_4913" data-name="Path 4913" d="M72.191,31.794V3.424A3.287,3.287,0,0,0,69.043,0q-.115,0-.229,0H49.45a3.665,3.665,0,0,0-3.828,3.422V4.955H44.046a3.918,3.918,0,0,0-3.828,3.738V37.108a1.576,1.576,0,0,0,.9,1.261,1.4,1.4,0,0,0,1.531-.27L45.4,35.622l3.287,2.927a1.351,1.351,0,0,0,.9.36,1.441,1.441,0,0,0,.9-.36l3.242-2.927,3.242,2.927a1.351,1.351,0,0,0,1.8,0l3.287-2.927,2.7,2.477a1.081,1.081,0,0,0,1.351.27,1.351,1.351,0,0,0,.676-1.261V30.713l.54-.405,2.747,2.477a1.306,1.306,0,0,0,.946.36.81.81,0,0,0,.45-.09A1.306,1.306,0,0,0,72.191,31.794Zm-7.205,4.323-2.117-2.072A1.261,1.261,0,0,0,61.113,34l-3.287,2.927L54.628,34a1.441,1.441,0,0,0-1.8,0l-3.242,2.927L46.3,34a1.486,1.486,0,0,0-1.936.045l-2.342,2.072V8.692a2.116,2.116,0,0,1,2.026-1.936H63.41a1.75,1.75,0,0,1,1.576,1.936V36.117Zm5.4-32.694V30.8l-2.252-2.072c-.36-.36-.45-.45-1.351-.315V8.692A3.546,3.546,0,0,0,63.41,4.955H47.423V3.424A1.871,1.871,0,0,1,49.45,1.8H68.814A1.486,1.486,0,0,1,70.39,3.424Z" transform="translate(-40.218 0)" fill="#fff"/>
        </g>
      </g>
    </g>
  </g>
</svg>
